<svg width="25" height="22" fill="none" xmlns="http://www.w3.org/2000/svg"><path d="M12.868 4.008a17.31 17.31 0 0 1 1.945-2.083 11.966 11.966 0 0 1 2.013-1.38A4.182 4.182 0 0 1 19.174.01c1.148.094 2.106.37 2.875.83a5.496 5.496 0 0 1 1.833 1.746 6.61 6.61 0 0 1 .93 2.393c.167.892.223 1.807.167 2.745a11.124 11.124 0 0 1-.486 2.689 13.783 13.783 0 0 1-1 2.393 15.217 15.217 0 0 1-1.32 2.055 21.082 21.082 0 0 1-1.444 1.704 27.9 27.9 0 0 1-2.32 2.153 25.88 25.88 0 0 1-2.305 1.718c-.731.478-1.398.858-2 1.14-.601.282-1.07.422-1.402.422-.37.019-.843-.112-1.417-.394a14.541 14.541 0 0 1-1.889-1.14A26.806 26.806 0 0 1 7.23 18.76a46.36 46.36 0 0 1-2.25-2.084c-.48-.47-1-1.013-1.555-1.633-.556-.62-1.079-1.3-1.57-2.04a13.747 13.747 0 0 1-1.263-2.408 8.063 8.063 0 0 1-.584-2.76 8.83 8.83 0 0 1 .306-2.744 7.357 7.357 0 0 1 1.083-2.295 6.584 6.584 0 0 1 1.778-1.703c.704-.46 1.5-.784 2.389-.971A3.75 3.75 0 0 1 6.896.08c.445.065.88.178 1.306.337.426.16.833.362 1.222.606s.76.497 1.111.76c.815.62 1.593 1.36 2.333 2.224Z" fill="#FF7676"/></svg>