<svg width="21" height="21" fill="none" xmlns="http://www.w3.org/2000/svg"><path d="M10.941 5.502c.462-.574.952-1.092 1.47-1.554a9.05 9.05 0 0 1 1.523-1.029 3.196 3.196 0 0 1 1.774-.399c.868.07 1.592.277 2.173.62a4.132 4.132 0 0 1 1.386 1.302c.343.525.578 1.12.704 1.785.126.665.168 1.347.126 2.047a8.195 8.195 0 0 1-.367 2.006 10.204 10.204 0 0 1-.756 1.785 11.323 11.323 0 0 1-.998 1.533c-.364.468-.728.892-1.092 1.27-.56.574-1.145 1.11-1.754 1.606-.609.497-1.19.924-1.743 1.282-.553.357-1.056.64-1.511.85-.455.21-.809.315-1.061.315-.28.014-.637-.084-1.071-.294a11.02 11.02 0 0 1-1.428-.85 20.211 20.211 0 0 1-1.638-1.271 34.847 34.847 0 0 1-1.701-1.554 25.41 25.41 0 0 1-1.176-1.218c-.42-.462-.816-.97-1.187-1.523a10.205 10.205 0 0 1-.955-1.795 5.945 5.945 0 0 1-.441-2.058 6.503 6.503 0 0 1 .231-2.047 5.456 5.456 0 0 1 .819-1.712 4.95 4.95 0 0 1 1.344-1.27 5.29 5.29 0 0 1 1.806-.725c.336-.07.672-.08 1.008-.031.336.049.665.133.987.252.322.119.63.269.924.451.294.182.574.371.84.567a11.459 11.459 0 0 1 1.764 1.659Z" fill="#FF7676"/></svg>