<svg width="18" height="17" fill="none" xmlns="http://www.w3.org/2000/svg"><path d="M9.524 4.454c.374-.465.77-.884 1.19-1.258a7.328 7.328 0 0 1 1.232-.833c.46-.25.938-.357 1.437-.323.702.057 1.289.224 1.76.501.47.278.843.63 1.121 1.054.278.425.468.907.57 1.445.102.539.136 1.091.102 1.658a6.636 6.636 0 0 1-.298 1.623 8.256 8.256 0 0 1-.612 1.446 9.166 9.166 0 0 1-.807 1.24c-.295.38-.59.723-.884 1.029-.454.465-.927.898-1.42 1.3-.493.403-.963.748-1.41 1.037-.449.29-.857.519-1.225.689-.368.17-.654.255-.858.255-.227.011-.516-.068-.867-.238a8.92 8.92 0 0 1-1.156-.689c-.42-.289-.862-.631-1.326-1.028a28.223 28.223 0 0 1-1.377-1.258 20.553 20.553 0 0 1-.952-.986c-.34-.374-.66-.785-.96-1.233a8.26 8.26 0 0 1-.774-1.453 4.812 4.812 0 0 1-.357-1.666c-.023-.59.04-1.142.187-1.658.147-.515.368-.977.663-1.385.294-.408.657-.75 1.088-1.029.43-.277.918-.473 1.462-.586.272-.057.544-.065.816-.026.272.04.538.108.799.204.26.097.51.219.748.366s.464.3.68.459c.498.374.974.822 1.428 1.343Z" fill="#fff"/></svg>