<svg width="20" height="20" fill="none" xmlns="http://www.w3.org/2000/svg"><path d="M14.908 19.07c-.944 0-2.002-.18-3.112-.524-2.666-.829-5.293-2.564-7.398-4.885C1.248 10.179-.257 6.709.036 3.623c.09-.766.332-1.735 1.48-2.513C2.396.396 3.403-.012 4.194 0c.83.013 1.11.306 1.964 1.544 1.314 1.81 1.403 2.704 1.352 3.214-.089.842-.548 1.212-.969 1.543-.102.077-.204.166-.293.243-.51.65-1.136 1.556 1.543 4.324 2.283 2.194 3.52 2.461 4.043 2.423.409-.025.562-.242.625-.319l.013-.012c.855-1.2 1.135-1.493 1.952-1.62.79-.128 1.199.127 2.882 1.186 1.518.956 2.22 1.594 2.067 2.602-.051 1.097-.893 2.59-1.837 3.265-.65.447-1.556.676-2.628.676Z" fill="#fff"/></svg>