<svg width="21" height="20" fill="none" xmlns="http://www.w3.org/2000/svg"><path d="M15.753 20c-.951 0-2.018-.179-3.137-.523-2.687-.829-5.335-2.564-7.456-4.885C1.984 11.11.467 7.64.763 4.554c.09-.766.334-1.735 1.491-2.513.887-.714 1.903-1.123 2.7-1.11.835.013 1.118.306 1.98 1.543C8.258 4.286 8.348 5.18 8.296 5.69c-.09.842-.552 1.212-.977 1.543-.102.077-.205.166-.295.242-.515.651-1.145 1.557 1.555 4.325 2.302 2.193 3.549 2.461 4.076 2.423.411-.026.565-.242.63-.319l.013-.013c.86-1.199 1.144-1.492 1.967-1.62.797-.127 1.208.128 2.905 1.187 1.53.956 2.237 1.594 2.083 2.602-.052 1.097-.9 2.589-1.852 3.265-.655.446-1.568.676-2.648.676Z" fill="#fff"/></svg>