<svg width="36" height="35" fill="none" xmlns="http://www.w3.org/2000/svg"><path d="M27.675 35c-1.753 0-3.718-.328-5.778-.96-4.948-1.522-9.826-4.706-13.733-8.966C2.316 18.682-.478 12.314.067 6.649c.166-1.404.615-3.184 2.746-4.612C4.447.727 6.318-.023 7.786.001c1.539.023 2.06.561 3.646 2.832 2.439 3.325 2.604 4.963 2.51 5.9-.166 1.545-1.018 2.224-1.8 2.833-.19.14-.379.304-.544.444-.947 1.194-2.108 2.857 2.865 7.937 4.238 4.026 6.535 4.518 7.505 4.448.758-.047 1.042-.445 1.16-.585l.024-.024c1.587-2.2 2.108-2.739 3.623-2.973 1.468-.234 2.226.234 5.351 2.177 2.818 1.756 4.12 2.927 3.836 4.776-.095 2.013-1.658 4.752-3.41 5.993-1.207.82-2.888 1.241-4.877 1.241Z" fill="#fff"/></svg>