<svg width="20" height="22" fill="none" xmlns="http://www.w3.org/2000/svg"><path d="M17.96 10.21s-3.06.653-3.906.88c-.839.228-1.879-1.421-2.158-1.48-.178.516-.754 2.034-1.099 3.063.533-.016 3.3.823 3.4 1.31.115.495 1.407 5.848 1.407 5.848s.548 1.15-1.007 1.57c-1.556.421-1.626-.859-1.626-.859s-1.087-4.105-1.183-4.354c-.09-.248-2.117-.664-2.58-.539-.468.127-1.469 3.632-2.457 3.87-1.27.308-4.988-1.95-4.988-1.95S.295 17.206.595 15.828c.305-1.368 1.73-.995 1.73-.995S4.96 16.28 5.262 16.11c.308-.172.482-1.17.931-2.138.019-.365 1.052-3.267 1.052-3.267s.572-1.932.345-2.053c-.314-.166-.642.189-.814.484-.173.293-.856 1.501-1.998 3.074-1.015 1.4-2.826.1-2.073-1.208.625-1.089 2.29-4.202 3.488-4.789 1.206-.59 3.286-.918 5.055-.504 1.778.406 3.025 2.42 3.374 2.687.34.256 2.736-.52 2.736-.52s1.363-.473 1.702.772c.34 1.253-1.1 1.562-1.1 1.562Zm-5.602-5.13a2.326 2.326 0 0 1-2.87-1.631A2.332 2.332 0 0 1 11.143.592a2.334 2.334 0 0 1 2.869 1.633 2.327 2.327 0 0 1-1.653 2.854Z" fill="#fff"/></svg>